<svg width="1000" height="1000" viewBox="0 0 1000 1000" xmlns="http://www.w3.org/2000/svg">
  <rect width="1000" height="1000" fill="#1C1C1C"/>
  <circle cx="200" cy="238" r="130" fill="#FFFFFF" opacity="0.03"/>
  <circle cx="808" cy="720" r="148" fill="#FFFFFF" opacity="0.03"/>

  <g transform="translate(500, 228)">
    <rect x="-24" y="-96" width="48" height="18" rx="8" fill="#C0392B" opacity="0.88"/>
    <rect x="-24" y="-80" width="48" height="10" rx="2" fill="#8899AA" opacity="0.4"/>
    <rect x="-24" y="-70" width="48" height="110" rx="5" fill="#4A7BC8"/>
    <rect x="-16" y="-66" width="12" height="100" rx="3" fill="white" opacity="0.12"/>
    <rect x="-24" y="32" width="48" height="16" rx="3" fill="#3A6AB8"/>
    <path d="M-24 48 L24 48 L4 94 L-4 94 Z" fill="#C0392B" opacity="0.9"/>
    <polygon points="0,94 -4,87 4,87" fill="#8B1A1A"/>
    <line x1="0" y1="97" x2="0" y2="148" stroke="#666" stroke-width="1.2" opacity="0.55"/>
    <circle cx="0" cy="154" r="4" fill="#666" opacity="0.5"/>
  </g>

  <text x="500" y="548"
        font-family="Arial Black, Arial, sans-serif"
        font-size="148" font-weight="900"
        fill="#FFFFFF" text-anchor="middle" letter-spacing="10">NOBLE</text>

  <line x1="80" y1="572" x2="430" y2="572" stroke="#555" stroke-width="0.8"/>
  <line x1="570" y1="572" x2="920" y2="572" stroke="#555" stroke-width="0.8"/>

  <text x="500" y="672"
        font-family="Arial Black, Arial, sans-serif"
        font-size="130" font-weight="900"
        fill="#C0392B" text-anchor="middle" letter-spacing="22">INK</text>

  <line x1="80" y1="692" x2="920" y2="692" stroke="#555" stroke-width="0.8"/>

  <text x="500" y="762"
        font-family="Arial, sans-serif" font-size="38" font-weight="400"
        fill="#999" text-anchor="middle" letter-spacing="22">STUDIOS</text>

  <text x="500" y="840"
        font-family="Arial, sans-serif" font-size="18"
        fill="#666" text-anchor="middle" letter-spacing="5">YOUR STORY. EXPERTLY TOLD.</text>

  <line x1="0" y1="968" x2="1000" y2="968" stroke="#555" stroke-width="2"/>
</svg>